<svg xmlns="http://www.w3.org/2000/svg" viewBox="0 0 299.915 299.915"><path d="M293.494 53.616H55.701c-.463 0-.88.174-1.318.27l-9.672-32.115c-.109-.347-.341-.604-.495-.925-.264-3.303-2.956-5.919-6.324-5.919h-.026l-31.465.134A6.435 6.435 0 000 21.52a6.424 6.424 0 006.427 6.401h.026l26.652-.116 61.524 204.187c-6.112 5.585-10.013 13.541-10.013 22.468 0 16.858 13.663 30.527 30.527 30.527 16.858 0 30.527-13.67 30.527-30.527 0-4.396-.964-8.548-2.635-12.32h88.819c-1.671 3.773-2.635 7.924-2.635 12.32 0 16.858 13.663 30.527 30.527 30.527 16.858 0 30.527-13.67 30.527-30.527s-13.67-30.527-30.527-30.527a30.377 30.377 0 00-17.243 5.354H132.38a30.358 30.358 0 00-17.237-5.354c-3.181 0-6.189.623-9.075 1.523l-9.178-30.45 161.918-.129c2.834 0 5.167-1.87 6.016-4.422.219-.405.456-.797.585-1.26l34.274-126.39c.219-.803.244-1.607.154-2.384.006-.135.077-.244.077-.373a6.42 6.42 0 00-6.42-6.432zm-33.741 183.165c9.749 0 17.674 7.924 17.674 17.674 0 9.749-7.924 17.674-17.674 17.674s-17.674-7.924-17.674-17.674c.001-9.75 7.925-17.674 17.674-17.674zm-144.603 0c9.75 0 17.674 7.924 17.674 17.674 0 9.749-7.924 17.674-17.674 17.674s-17.674-7.924-17.674-17.674 7.924-17.674 17.674-17.674zm138.89-54.751l-161.011.129L58.176 66.476h227.201L254.04 182.03z"/></svg>