<svg xmlns="http://www.w3.org/2000/svg" viewBox="0 0 49.46 49.46"><path d="M1 16.232h6.448a1 1 0 100-2H1a1 1 0 100 2zm48.021 17.167l-10.847-7.346a.999.999 0 00-1.56.828v6.346h-6.049a1 1 0 100 2h7.049a1 1 0 001-1v-5.461l8.063 5.461-8.063 5.461v-.078a1 1 0 10-2 0v1.963a.999.999 0 001.561.828l10.847-7.347a1 1 0 00-.001-1.655z"/><path d="M8.56 7.841a1 1 0 00-1.647 1.136L17.79 24.73l-5.866 8.497H1a1 1 0 100 2h11.448c.328 0 .636-.162.823-.432l5.734-8.305 10.446 15.129a1 1 0 001.646-1.136L8.56 7.841zm14.801 12.343l2.728-3.951h11.524a1 1 0 001-1V9.771l8.063 5.461-8.063 5.461v-.078a1 1 0 10-2 0v1.963a.999.999 0 001.561.828l10.847-7.347a1 1 0 000-1.656L38.174 7.058a1.001 1.001 0 00-1.56.828v6.346H25.565c-.328 0-.636.162-.823.432l-3.026 4.383a1.001 1.001 0 001.645 1.137z"/></svg>