<svg viewBox="0 0 1024 1024" xmlns="http://www.w3.org/2000/svg"><path d="M0 911.988v-799.99c.679-2.539 1.486-5.051 2.019-7.619C12.534 53.687 42.313 20.36 91.821 4.941 98.42 2.886 105.267 1.627 111.999 0h799.994c1.21.51 2.376 1.262 3.636 1.496 67.629 12.605 108.341 61.421 108.351 130.225.033 253.579.049 507.156-.113 760.732-.006 10.586-.762 21.414-3.035 31.715-13.367 60.537-63.092 99.762-126.33 99.783-254.91.082-509.822.035-764.734.031-2.665-.002-5.332-.01-7.996-.098-54.118-1.818-100.726-37.777-116.147-89.738C3.457 926.848 1.86 919.379 0 911.988zm127.999-495.984v10.098c0 145.294 0 290.591.004 435.888 0 1.998-.028 4.002.077 5.996.945 17.807 9.773 26.789 27.476 27.877 3.321.203 6.662.121 9.994.121 230.943.004 461.885.004 692.828-.002 3.665 0 7.347.107 10.991-.18 16.725-1.316 25.22-9.932 26.467-26.773.221-2.984.152-5.994.152-8.992.008-144.297.006-288.594.006-432.89v-11.182c-26.859 6-52.299 11.686-77.805 17.385 38.726 137.543-16.44 260.066-105.206 326.691-109.446 82.148-229.808 95.84-350.075 31.516-142.734-76.344-190.811-200.748-157.279-358.647l-77.63-16.906zm384.499 294.529c15.803-2.197 31.824-3.381 47.368-6.754C679.056 677.918 748.062 553.468 705.75 441.3c-38.142-101.11-153.364-154.469-258.883-119.888-99.499 32.609-157.037 131.7-134.762 232.087 19.944 89.884 104.391 155.62 200.393 157.034zm383.495-486.561c0-19.976.035-39.951-.01-59.925-.053-23.27-12.594-36.002-35.591-36.034-40.283-.055-80.566-.055-120.851 0-22.65.031-35.488 12.676-35.525 35.059-.072 40.615-.07 81.231-.002 121.846.037 21.937 12.873 34.997 34.553 35.048 40.95.098 81.899.098 122.848 0 21.646-.053 34.477-13.15 34.561-35.071.078-20.309.017-40.618.017-60.923z"/></svg>