<svg viewBox="0 0 144.083 144" xmlns="http://www.w3.org/2000/svg"><path d="M72.041 14.166C40.1 14.166 14.208 40.06 14.208 72c0 31.939 25.893 57.834 57.833 57.834S129.875 103.939 129.875 72c0-31.94-25.894-57.834-57.834-57.834zM99.586 65.34c-.688 8.231-6.709 17.835-12.271 20.579-5.564 2.744-11.51 2.744-14.939 1.067 0 0-4.421-2.668-5.03-3.431-.381.305-1.601 7.851-3.43 12.576s-4.344 9.375-7.927 11.509c-1.295-4.268-.457-14.786 2.058-24.085 2.517-9.298 3.507-13.643 3.507-13.643s-3.201-6.098-.076-12.804c3.125-6.707 8.993-5.183 10.137-4.116 1.144 1.067 3.201 1.905 1.524 8.765s-4.497 13.567-2.134 17.226c1.447 2.058 9.146 3.734 13.489-2.058 3.507-5.869 4.88-8.536 5.032-17.759 0 0 .164-14.797-13.035-15.7-11.127-.763-16.266 3.991-19.663 7.316-3.582 3.506-6.249 13.108-2.896 18.444 1.677 2.362 1.753 3.734 1.524 5.106s-1.296 3.43-1.296 3.43-9.45-1.676-9.907-13.262c-.458-11.585 4.953-18.216 9.755-21.874 4.803-3.658 13.135-8.333 29.598-5.284 10.873 2.949 17.732 12.298 15.98 27.998z"/></svg>