<svg viewBox="0 0 1024 1024" xml:space="preserve" xmlns="http://www.w3.org/2000/svg" xmlns:xlink="http://www.w3.org/1999/xlink"><g><path d="M0,911.988c0-266.664,0-533.328,0-799.99c0.679-2.539,1.486-5.051,2.019-7.619C12.534,53.687,42.313,20.36,91.821,4.941    C98.42,2.886,105.267,1.627,111.999,0c266.666,0,533.33,0,799.994,0c1.21,0.51,2.376,1.262,3.636,1.496    c67.629,12.605,108.341,61.421,108.351,130.225c0.033,253.579,0.049,507.156-0.113,760.732    c-0.006,10.586-0.762,21.414-3.035,31.715c-13.367,60.537-63.092,99.762-126.33,99.783c-254.91,0.082-509.822,0.035-764.734,0.031    c-2.665-0.002-5.332-0.01-7.996-0.098c-54.118-1.818-100.726-37.777-116.147-89.738C3.457,926.848,1.86,919.379,0,911.988z     M127.999,416.004c0,4.157,0,7.127,0,10.098c0,145.294,0,290.591,0.004,435.888c0,1.998-0.028,4.002,0.077,5.996    c0.945,17.807,9.773,26.789,27.476,27.877c3.321,0.203,6.662,0.121,9.994,0.121c230.943,0.004,461.885,0.004,692.828-0.002    c3.665,0,7.347,0.107,10.991-0.18c16.725-1.316,25.22-9.932,26.467-26.773c0.221-2.984,0.152-5.994,0.152-8.992    c0.008-144.297,0.006-288.594,0.006-432.89c0-3.479,0-6.959,0-11.182c-26.859,6-52.299,11.686-77.805,17.385    c38.726,137.543-16.44,260.066-105.206,326.691c-109.446,82.148-229.808,95.84-350.075,31.516    C220.174,715.213,172.097,590.809,205.629,432.91C180.661,427.473,155.047,421.894,127.999,416.004z M512.498,710.533    c15.803-2.197,31.824-3.381,47.368-6.754c119.19-25.861,188.196-150.311,145.884-262.479    c-38.142-101.11-153.364-154.469-258.883-119.888c-99.499,32.609-157.037,131.7-134.762,232.087    C332.049,643.383,416.496,709.119,512.498,710.533z M895.993,223.972c0-19.976,0.035-39.951-0.01-59.925    c-0.053-23.27-12.594-36.002-35.591-36.034c-40.283-0.055-80.566-0.055-120.851,0c-22.65,0.031-35.488,12.676-35.525,35.059    c-0.072,40.615-0.07,81.231-0.002,121.846c0.037,21.937,12.873,34.997,34.553,35.048c40.95,0.098,81.899,0.098,122.848,0    c21.646-0.053,34.477-13.15,34.561-35.071C896.054,264.586,895.993,244.277,895.993,223.972z"/></g></svg>